<svg id="Capa_1" data-name="Capa 1" xmlns="http://www.w3.org/2000/svg" xmlns:xlink="http://www.w3.org/1999/xlink" viewBox="0 0 364.92 338.25"><defs><style>.cls-1{fill:url(#Degradado_sin_nombre_3);}.cls-2{fill:url(#linear-gradient);}.cls-3{fill:url(#linear-gradient-2);}</style><linearGradient id="Degradado_sin_nombre_3" x1="229.54" y1="33.15" x2="133.98" y2="186.08" gradientUnits="userSpaceOnUse"><stop offset="0" stop-color="#c5902f"/><stop offset="0.35" stop-color="#fef6b1"/><stop offset="0.7" stop-color="#ae782b"/></linearGradient><linearGradient id="linear-gradient" x1="329.17" y1="322.57" x2="2.45" y2="324.52" gradientUnits="userSpaceOnUse"><stop offset="0" stop-color="#c5902f"/><stop offset="0.35" stop-color="#fef6b1"/><stop offset="0.6" stop-color="#ae782b"/></linearGradient><linearGradient id="linear-gradient-2" x1="437.2" y1="261.22" x2="-95.66" y2="257.33" xlink:href="#linear-gradient"/></defs><path class="cls-1" d="M122.28,133.29c-.4,1,.21,3.65.21,3.65-11.17-9.54-8.73-20.1-5.89-24.16s7.71-3,7.71-3c12.79,3,16.67,6,17.61,7.15a1.61,1.61,0,0,1,.34.75c.8,5.09-5.82,9.14-8,8.54a7.77,7.77,0,0,1-3.25-1.62c-5.48,8.93,5.08,19.49,5.08,19.49C129,142.43,122.28,133.29,122.28,133.29ZM169,107.71a96.62,96.62,0,0,1-9.75-14.82s8.53,7.31,16.45-.81,14.41-2.24,14,3.45-.81,13.19-15.43,19.69c0,0-7.51,2-12.59,11.17,0,0,4.87-6.7,20.71-8.33S204.71,103.24,201.06,87s-21.12-26.8-21.12-26.8,9.55-1,20.31,8.53c0,0,4.26-6.09,9.74-5.28,0,0-16.44-17.87-38.78-11.78,0,0-9.74,2.44-12.18,12.79,0,0-7.92-4.06-15.43-2.23,0,0,4.06-4.67,6.5-5.89,0,0-1.59-1.37-2.44-.81-.61.41,12.39-19.29,48.73-4.67,0,0,11.16,5.08,17.05,13.2,0,0-6.7,1.62-9.95,6.29a7.23,7.23,0,0,0,1.22,6.5c2.44,3.25,18.07,36.14-15.22,51.57,0,0-15.64,5.88-18.28,18.47,0,0,7.11-12.38,19.9-10.35,0,0-24.36,16-14.42,59.48,0,0-3.24-30.25,27.41-56.44,0,0,5.69-5.68,6.7-7.51,0,0,1.63-2.23.82,2.23s-6.7,15.43-11.37,21.53-14.83,25.58-7.11,48.72a61.86,61.86,0,0,1,10.76-36.34c12.18-17.66,25.78-41.82,24.36-49.94,0,0,9.14,10.55-15.63,51.36,0,0-12.59,21.12-10.35,34.31a116.15,116.15,0,0,1,20.3-37.35s11.77-16.45,11.57-26.6c0,0,5.08,19.69-6.29,41,0,0,44.26-30.45.4-100.9,0,0,27.82,14.21,26.8,56.44,0,0,14.21-45.89-21.52-80.6,0,0,13.81,1.42,19.7,9.13,0,0-8.13-28.62-34.92-34.92,0,0,8.52-4.06,22.53,3.66,0,0-24.16-36.14-70.45-18.07,0,0,5.08-9.14,15.84-9.95,0,0-44.47-2.23-44.87,31.67,0,0,11.77-14.41,36.75-13a51.49,51.49,0,0,1-6.91,8.93s16-4.87,30.86-.2c0,0-21,3.68-30.18,8.94a2.29,2.29,0,0,1-3-.61A22.55,22.55,0,0,1,166.14,36s-24.37-2.23-34.31,13.81c0,0,8.52-2.44,9.94-1,0,0-3.45.61-3.85,3.05s-1.22,2.23-2.44,3.24c0,0-8.32,6.91-16.24,10.16s-7.51,5.88-7.31,9.34c0,0,3.86-6.5,11.37-.82,0,0,5.68,6.3,12.38,5.28,0,0-.61,4.27-14.41,2.84,0,0-8.33-.2-5.28,12.59a12.59,12.59,0,0,0,4.06,6.85,2.7,2.7,0,0,0,1.85.54c2.27-.16,9.21.4,20.72,10.4a2.87,2.87,0,0,0,2.44.68c1.72-.35,4-2,2.8-8.32A57.28,57.28,0,0,1,158,111s-10.16-9.75-10.36-12.18c0,0,8.73,4.06,14.82,10.35,0,0-11.37-13-11.57-15.43C150.91,93.7,164.72,102.84,169,107.71Zm-60.5-13.4c-1,6.29,3,7.51,4.26,6.9s.41-1.42.41-1.42c-4.27-5.48-.21-13.2-.21-13.2S109.49,88,108.48,94.31Z"/><path class="cls-2" d="M86.68,332.57,93.58,314H98.4l6.74,18.53h-4.35l-1.14-3.63H92.28l-1.22,3.63Zm6.65-7h5.29l-2.63-8Zm16,7V314h3.86L122,326.28V314h3.87v18.53h-3.76l-8.9-12.1v12.1ZM131.83,314h7.23a9.24,9.24,0,0,1,6.91,2.55,9.15,9.15,0,0,1,2.51,6.73,9.32,9.32,0,0,1-2.42,6.73,8.9,8.9,0,0,1-6.72,2.52h-7.51Zm7.81,14.79a4.22,4.22,0,0,0,3.41-1.55,6.05,6.05,0,0,0,1.3-4A5.86,5.86,0,0,0,143,319.3a4.39,4.39,0,0,0-3.48-1.52H135.9v11.05ZM163.45,314l6.45,10.44L176.36,314h3.93v18.53h-3.93V320.94l-5.1,8h-2.71l-5.07-8v11.63h-4V314Zm22.78,18.53V314h13.41v3.52h-9.42v4h9.14V325h-9.14v4.1h9.72v3.52ZM205.13,314h7.23a9.28,9.28,0,0,1,6.92,2.55,9.18,9.18,0,0,1,2.5,6.73,9.27,9.27,0,0,1-2.42,6.73,8.9,8.9,0,0,1-6.72,2.52h-7.51Zm7.81,14.79a4.22,4.22,0,0,0,3.41-1.55,6.06,6.06,0,0,0,1.31-4,5.81,5.81,0,0,0-1.32-3.94,4.39,4.39,0,0,0-3.48-1.52H209.2v11.05Zm11.37,3.74,6.9-18.53H236l6.73,18.53h-4.35l-1.13-3.63h-7.37l-1.22,3.63Zm6.65-7h5.29l-2.63-8Zm29,7H247V314h4.13v15h8.84Zm4.85-5.51a11.25,11.25,0,0,0,7.07,2.27,4.62,4.62,0,0,0,2.48-.58,1.81,1.81,0,0,0,.93-1.61,1.67,1.67,0,0,0-.13-.69,1.21,1.21,0,0,0-.48-.54,4.39,4.39,0,0,0-.63-.36,4.5,4.5,0,0,0-.9-.26l-.93-.2-1.09-.16c-.61-.1-1.13-.19-1.55-.28s-1-.23-1.57-.4a6.72,6.72,0,0,1-1.56-.65,8.26,8.26,0,0,1-1.25-1,3.37,3.37,0,0,1-.91-1.38,5.22,5.22,0,0,1-.31-1.86,4.82,4.82,0,0,1,2.09-4.22,9.86,9.86,0,0,1,5.7-1.46,15.14,15.14,0,0,1,7.26,1.8l-1.64,3.13a12.14,12.14,0,0,0-5.87-1.49,4.76,4.76,0,0,0-2.5.54,1.66,1.66,0,0,0-.85,1.48,1.6,1.6,0,0,0,.27.94,1.93,1.93,0,0,0,.89.63c.41.15.78.27,1.12.36s.81.17,1.4.26a20.28,20.28,0,0,1,4.85,1.22,4.47,4.47,0,0,1,2.83,4.29,5.08,5.08,0,0,1-2.18,4.42,10,10,0,0,1-5.91,1.54,14.44,14.44,0,0,1-4.6-.72,12.89,12.89,0,0,1-3.69-1.86ZM78,319.78H5.69v3.7H78Zm282.5,0H289.19v3.7h71.29Z"/><path class="cls-3" d="M6.39,289v-58.5H36.67c5.4,0,9.65,1.43,12.63,4.24a14.16,14.16,0,0,1,4.48,10.73,13,13,0,0,1-1.86,7,11.1,11.1,0,0,1-5.23,4.43l-1.78.75,1.85.57a13.31,13.31,0,0,1,7,4.94,14.59,14.59,0,0,1,2.6,8.81c0,5.19-1.79,9.36-5.31,12.4S42.34,289,35.68,289Zm11.66-9.24h17a10,10,0,0,0,6.87-2.38,8.27,8.27,0,0,0,.24-12A8.52,8.52,0,0,0,36,263.05h-18Zm0-24.45H34a9.1,9.1,0,0,0,6.11-2.1,7.16,7.16,0,0,0,2.48-5.68,7.54,7.54,0,0,0-2.32-5.66,8.21,8.21,0,0,0-5.91-2.21H18.05ZM117.78,289l-21.25-58.5H81.94L60.16,289H72.79l3.77-11.23,3.41-11L89.24,239l9.18,27.74,3.31,11L105.25,289Zm8.79,0v-58.5h22.67c9.25,0,16.59,2.7,21.83,8S179,251,179,259.82s-2.57,16-7.64,21.27S159.14,289,150.13,289Zm11.75-10.68h12.8a14.42,14.42,0,0,0,11.55-5.26c2.9-3.46,4.38-8,4.38-13.53,0-5.34-1.49-9.78-4.43-13.18a14.85,14.85,0,0,0-11.77-5.17H138.32ZM238.87,282c5.48-5.35,8.25-12.46,8.25-21.12v-5H217.37v8.61h17.47v.71A12.93,12.93,0,0,1,230,275.31a17.79,17.79,0,0,1-12,4.11,18.4,18.4,0,0,1-13.71-5.59,21,21,0,0,1-.15-28A18.33,18.33,0,0,1,218,240.22a20,20,0,0,1,9.47,2.36,17.23,17.23,0,0,1,6.56,6.06l9-7.31c-5.85-7.88-14.29-11.88-25.09-11.88-9,0-16.51,2.87-22.25,8.53S187,251,187,259.73s2.91,16.26,8.65,21.88,13.2,8.48,22.16,8.48C226.32,290.09,233.4,287.38,238.87,282Zm114.18,3.07c4.53-3.21,6.73-7.69,6.73-13.71s-2.86-10.48-8.73-13.24c-3-1.4-8.18-2.7-15.48-3.88-1.91-.3-3.45-.59-4.58-.87a28.18,28.18,0,0,1-3.72-1.19,6.68,6.68,0,0,1-3.18-2.26,5.83,5.83,0,0,1-1-3.46,6.07,6.07,0,0,1,3.11-5.38c1.95-1.24,4.79-1.86,8.43-1.86a39.89,39.89,0,0,1,18.69,4.58l4.63-8.86a48.37,48.37,0,0,0-22.51-5.41c-7.58,0-13.64,1.54-18,4.58S311,241.41,311,247.19a16.85,16.85,0,0,0,.94,5.76,10.57,10.57,0,0,0,2.77,4.2,26.2,26.2,0,0,0,3.92,3,19.94,19.94,0,0,0,4.89,2c2,.56,3.66,1,5,1.29s3,.59,5,.88c1.77.25,2.94.42,3.57.54l3,.63a15.33,15.33,0,0,1,3.06.91,19.06,19.06,0,0,1,2.1,1.21,4.64,4.64,0,0,1,1.83,2.07,6.45,6.45,0,0,1,.46,2.51,6.54,6.54,0,0,1-3.33,5.79,15.71,15.71,0,0,1-8.39,2c-8.7,0-16.3-2.35-22.59-7l-4.71,9.1a41.52,41.52,0,0,0,11.22,5.54,46,46,0,0,0,14.64,2.3C342.21,289.92,348.5,288.29,353.05,285.08ZM95.89,289,89,266.13,82,289Zm204.87,0v-10H269.33V264.39h29.55v-9.51h-28.1L257.85,267.8V289Zm-42.91-36.75,11.79-11.78h30.14v-10H257.85Z"/></svg>